<?xml version="1.0" encoding="UTF-8" standalone="no"?>
<svg
   xmlns:dc="http://purl.org/dc/elements/1.1/"
   xmlns:cc="http://creativecommons.org/ns#"
   xmlns:rdf="http://www.w3.org/1999/02/22-rdf-syntax-ns#"
   xmlns:svg="http://www.w3.org/2000/svg"
   xmlns="http://www.w3.org/2000/svg"
   id="svg8"
   version="1.1"
   viewBox="0 0 140.00726 40.984238"
   height="40.984238mm"
   width="140.00726mm">
  <defs
     id="defs2" />
  <metadata
     id="metadata5">
    <rdf:RDF>
      <cc:Work
         rdf:about="">
        <dc:format>image/svg+xml</dc:format>
        <dc:type
           rdf:resource="http://purl.org/dc/dcmitype/StillImage" />
        <dc:title></dc:title>
      </cc:Work>
    </rdf:RDF>
  </metadata>
  <g
     transform="translate(-26.594366,-64.776344)"
     id="layer1">
    <path
       id="path3701"
       d="M 59.158787,76.969226 46.829479,64.776344 26.594366,85.236079 38.437227,96.946648 33.994431,83.31785 Z m 0,0"
       style="fill:#0268ae;fill-opacity:1;fill-rule:nonzero;stroke:none;stroke-width:0.35277778" />
    <path
       id="path3703"
       d="m 67.289211,85.010079 -3.611838,-3.571875 -22.707311,5.729884 5.909028,18.128092 0.176389,0.17501 z m 0,0"
       style="fill:#4a4a4c;fill-opacity:1;fill-rule:nonzero;stroke:none;stroke-width:0.35277778" />
    <path
       id="path3705"
       d="m 84.804078,93.683453 -3.793737,-6.261806 -1.766648,1.974727 v 4.287079 H 73.214777 V 75.46992 h 6.028916 v 6.312793 l 5.430849,-6.312793 h 6.937047 l -6.496075,7.327029 6.88606,10.886504 z m 0,0"
       style="fill:#0268ae;fill-opacity:1;fill-rule:nonzero;stroke:none;stroke-width:0.35277778" />
    <path
       id="path3707"
       d="m 112.45028,93.683453 h -5.7161 l -2.0271,-7.482749 -2.10426,7.482749 H 96.886717 L 91.741122,79.470367 h 5.924187 l 2.261362,8.470798 2.182809,-8.470798 h 5.40467 l 2.25998,8.470798 2.2338,-8.470798 h 5.63893 z m 0,0"
       style="fill:#0268ae;fill-opacity:1;fill-rule:nonzero;stroke:none;stroke-width:0.35277778" />
    <path
       id="path3709"
       d="m 125.07725,90.228711 c 0.83233,0 1.49103,-0.365182 1.9761,-1.092786 v -1.298109 h -2.02709 c -0.83234,0 -1.24713,0.381716 -1.24713,1.142393 0,0.830957 0.43271,1.248502 1.29812,1.248502 m 1.16995,-11.017416 c 2.06154,0 3.66834,0.46302 4.82038,1.390441 1.15066,0.926042 1.72806,2.221396 1.72806,3.884691 v 9.197026 h -5.74229 v -1.532378 c -0.86678,1.194759 -2.20072,1.791447 -4.00182,1.791447 -1.49104,0 -2.65548,-0.402385 -3.49471,-1.207159 -0.8406,-0.806154 -1.2609,-1.892046 -1.2609,-3.26044 0,-2.841515 1.83555,-4.287075 5.5094,-4.339442 h 3.24803 c -0.0358,-1.040419 -0.7717,-1.559941 -2.20899,-1.559941 -1.24713,0 -2.6858,0.30455 -4.31326,0.910887 l -1.29949,-3.898474 c 2.51216,-0.917772 4.85069,-1.376658 7.01559,-1.376658"
       style="fill:#0268ae;fill-opacity:1;fill-rule:nonzero;stroke:none;stroke-width:0.35277778" />
    <path
       id="path3711"
       d="m 146.46165,79.211295 c 1.50757,0 2.73264,0.493338 3.67798,1.480012 0.94395,0.988053 1.41524,2.295814 1.41524,3.924653 v 9.067493 h -5.84564 v -7.379395 c 0,-0.588423 -0.15571,-1.059713 -0.46853,-1.415246 -0.31143,-0.355533 -0.71933,-0.533301 -1.22094,-0.533301 -0.57188,0 -1.02526,0.208086 -1.36288,0.624251 -0.339,0.414789 -0.5085,0.970139 -0.5085,1.661915 v 7.041776 h -5.84563 V 79.470367 h 5.84563 v 2.027093 c 1.00459,-1.524109 2.44326,-2.286165 4.31327,-2.286165"
       style="fill:#0268ae;fill-opacity:1;fill-rule:nonzero;stroke:none;stroke-width:0.35277778" />
    <path
       id="path3713"
       d="m 164.2094,89.058755 0.98667,4.000447 c -1.00459,0.589799 -2.35644,0.88332 -4.05281,0.88332 -1.62884,0.01792 -2.92833,-0.414789 -3.89847,-1.298109 -0.97014,-0.883324 -1.45383,-2.061545 -1.45383,-3.534671 v -5.1704 h -1.94992 v -3.689008 h 1.94992 v -3.975639 h 5.82084 v 3.975639 h 3.3252 v 3.689008 h -3.3252 v 4.288455 c 0,0.380341 0.10335,0.679376 0.31143,0.895728 0.20671,0.216351 0.48369,0.316946 0.83096,0.299032 0.32935,0 0.81442,-0.121267 1.45521,-0.363802"
       style="fill:#0268ae;fill-opacity:1;fill-rule:nonzero;stroke:none;stroke-width:0.35277778" />
    <path
       id="path3715"
       d="m 74.031955,99.38853 v 1.15342 h 1.036285 c 0.2508,0 0.454752,0.0854 0.607713,0.25631 0.15434,0.1695 0.23151,0.36518 0.23151,0.58291 v 2.81258 c 0,0.051 -0.0193,0.0965 -0.0565,0.13643 -0.03721,0.04 -0.08406,0.0593 -0.139185,0.0593 h -0.454752 c -0.05237,0 -0.09784,-0.0179 -0.137802,-0.0565 -0.03859,-0.0358 -0.05926,-0.0827 -0.05926,-0.13918 v -2.81258 c 0,-0.051 -0.0248,-0.0758 -0.07579,-0.0758 h -0.943956 v 2.88837 c 0,0.051 -0.0193,0.0965 -0.0565,0.13643 -0.03721,0.04 -0.08406,0.0593 -0.139182,0.0593 h -0.463021 c -0.05099,0 -0.09646,-0.0179 -0.13505,-0.0565 -0.04134,-0.0358 -0.06063,-0.0827 -0.06063,-0.13918 v -4.80522 c 0,-0.0565 0.0193,-0.101974 0.06063,-0.139182 0.03859,-0.03721 0.08406,-0.0565 0.13505,-0.0565 h 0.454752 c 0.0565,0 0.103353,0.0193 0.140561,0.05925 0.0372,0.03997 0.05512,0.08544 0.05512,0.136427"
       style="fill:#4a4a4c;fill-opacity:1;fill-rule:nonzero;stroke:none;stroke-width:0.35277778" />
    <path
       id="path3717"
       d="m 78.900564,103.63427 h 0.992188 c 0.0248,0 0.0441,-0.01 0.06063,-0.0289 0.01517,-0.0179 0.0248,-0.0358 0.0248,-0.0551 v -2.8112 c 0,-0.0565 0.0193,-0.10335 0.05926,-0.14056 0.03859,-0.0372 0.08544,-0.0551 0.136426,-0.0551 h 0.461645 c 0.05512,0 0.101974,0.0193 0.139182,0.0593 0.03721,0.04 0.0565,0.0841 0.0565,0.13643 v 2.80431 c 0,0.22324 -0.07717,0.4203 -0.231511,0.59118 -0.15296,0.16949 -0.358288,0.25493 -0.615981,0.25493 h -1.167197 c -0.256318,0 -0.461645,-0.0854 -0.614606,-0.25493 -0.154341,-0.17088 -0.231511,-0.36794 -0.231511,-0.59118 v -2.80431 c 0,-0.0565 0.0193,-0.10335 0.05926,-0.14056 0.03996,-0.0372 0.08544,-0.0551 0.136427,-0.0551 h 0.454751 c 0.05512,0 0.101974,0.0193 0.140561,0.0593 0.03583,0.04 0.05512,0.0841 0.05512,0.13643 v 2.8112 c 0,0.0193 0.0083,0.0372 0.0248,0.0551 0.01654,0.0193 0.03583,0.0289 0.05926,0.0289"
       style="fill:#4a4a4c;fill-opacity:1;fill-rule:nonzero;stroke:none;stroke-width:0.35277778" />
    <path
       id="path3719"
       d="m 84.754471,101.33983 h -0.741388 c -0.103349,0 -0.152961,0.0565 -0.152961,0.16813 v 2.68579 c 0,0.0565 -0.02067,0.10198 -0.06063,0.13918 -0.03859,0.0386 -0.08406,0.0565 -0.136426,0.0565 h -0.468535 c -0.05512,0 -0.101973,-0.0193 -0.139181,-0.0593 -0.03858,-0.04 -0.0565,-0.0854 -0.0565,-0.13643 v -2.91731 c 0,-0.19568 0.06753,-0.36656 0.199817,-0.51401 0.132292,-0.14607 0.311436,-0.2191 0.534681,-0.2191 h 1.021126 c 0.0565,0 0.101973,0.0193 0.139181,0.0593 0.03858,0.04 0.0565,0.0841 0.0565,0.13643 v 0.40514 c 0,0.0565 -0.0193,0.10198 -0.05925,0.14056 -0.03997,0.0372 -0.08544,0.0551 -0.136426,0.0551"
       style="fill:#4a4a4c;fill-opacity:1;fill-rule:nonzero;stroke:none;stroke-width:0.35277778" />
    <path
       id="path3721"
       d="m 88.294649,101.30538 h -0.679373 v 2.24483 c 0,0.0565 0.02755,0.0841 0.08406,0.0841 h 0.671107 c 0.0565,0 0.103353,0.0193 0.139181,0.0593 0.03858,0.04 0.0565,0.0854 0.0565,0.13643 v 0.3638 c 0,0.0565 -0.0193,0.10198 -0.05925,0.13918 -0.03997,0.0386 -0.08544,0.0565 -0.136426,0.0565 h -0.775836 c -0.214976,0 -0.407899,-0.0786 -0.577399,-0.23427 -0.170878,-0.15571 -0.254938,-0.35553 -0.254938,-0.59806 v -4.036279 c 0,-0.106108 0.05375,-0.179144 0.159854,-0.216351 l 0.463021,-0.139182 c 0.07855,-0.03306 0.136426,-0.02618 0.17501,0.02067 0.03583,0.04686 0.05512,0.101978 0.05512,0.168123 v 1.189249 h 0.679373 c 0.05512,0 0.101977,0.0193 0.139181,0.0593 0.03721,0.0386 0.0565,0.0841 0.0565,0.13642 v 0.37069 c 0,0.0551 -0.02067,0.10197 -0.06063,0.13918 -0.03997,0.0372 -0.08406,0.0565 -0.13505,0.0565"
       style="fill:#4a4a4c;fill-opacity:1;fill-rule:nonzero;stroke:none;stroke-width:0.35277778" />
    <path
       id="path3723"
       d="m 92.658898,103.5571 v -2.17455 c 0,-0.0524 -0.02618,-0.0772 -0.07855,-0.0772 h -1.014236 c -0.05512,0 -0.08268,0.0276 -0.08268,0.0841 v 2.16766 c 0,0.051 0.0248,0.0772 0.07717,0.0772 h 1.019746 c 0.05237,0 0.07855,-0.0262 0.07855,-0.0772 m 0.844737,-2.16766 v 2.16766 c 0,0.22324 -0.07028,0.41892 -0.212217,0.58428 -0.14194,0.16537 -0.341754,0.24805 -0.598071,0.24805 h -1.231964 c -0.265963,0 -0.469914,-0.0827 -0.614606,-0.24805 -0.144695,-0.16536 -0.216351,-0.36104 -0.216351,-0.58428 v -2.17455 c 0,-0.23427 0.0813,-0.43132 0.248045,-0.59531 0.165364,-0.16261 0.362426,-0.24391 0.591178,-0.24391 h 1.189249 c 0.209462,0 0.402385,0.0868 0.580154,0.26182 0.176388,0.17501 0.264583,0.36932 0.264583,0.58429"
       style="fill:#4a4a4c;fill-opacity:1;fill-rule:nonzero;stroke:none;stroke-width:0.35277778" />
    <path
       id="path3725"
       d="m 100.13338,100.78724 -0.868168,3.30867 c -0.06477,0.22875 -0.265962,0.34313 -0.600826,0.34313 -0.365178,0 -0.576019,-0.11438 -0.631141,-0.34175 l -0.354153,-1.53514 -0.359671,1.531 c -0.0689,0.23013 -0.275608,0.34589 -0.618737,0.34589 -0.336244,0 -0.538816,-0.11438 -0.607717,-0.34313 l -0.875054,-3.30867 c -0.03168,-0.16261 0.03996,-0.24391 0.217731,-0.24391 h 0.362422 c 0.07579,0 0.14194,0.0248 0.202572,0.0758 0.06201,0.051 0.100599,0.11024 0.119892,0.17501 l 0.628385,2.86081 0.559481,-2.29444 c 0.03859,-0.17225 0.158475,-0.25769 0.363802,-0.25769 0.194307,0 0.322464,0.0841 0.383096,0.25218 l 0.573264,2.30133 0.615985,-2.86219 c 0.01379,-0.0648 0.05099,-0.12402 0.111619,-0.17501 0.06064,-0.051 0.128157,-0.0758 0.202572,-0.0758 h 0.363802 c 0.181904,0 0.252184,0.0813 0.210844,0.24391"
       style="fill:#4a4a4c;fill-opacity:1;fill-rule:nonzero;stroke:none;stroke-width:0.35277778" />
    <path
       id="path3727"
       d="m 104.00291,101.30538 h -1.00046 c -0.051,0 -0.0772,0.0276 -0.0772,0.0841 v 2.80431 c 0,0.0565 -0.0193,0.10198 -0.0593,0.13918 -0.04,0.0386 -0.0854,0.0565 -0.13643,0.0565 h -0.46164 c -0.0551,0 -0.10336,-0.0193 -0.13918,-0.0593 -0.0386,-0.04 -0.0565,-0.0854 -0.0565,-0.13643 v -2.80431 c 0,-0.22462 0.0772,-0.42168 0.23151,-0.59118 0.15296,-0.17087 0.35829,-0.25493 0.6146,-0.25493 h 1.16858 c 0.25631,0 0.46164,0.0841 0.6146,0.25493 0.15434,0.1695 0.23151,0.36656 0.23151,0.59118 v 2.80431 c 0,0.0565 -0.0207,0.10198 -0.0593,0.13918 -0.04,0.0386 -0.0854,0.0565 -0.13643,0.0565 h -0.45475 c -0.0551,0 -0.10198,-0.0193 -0.14056,-0.0593 -0.0372,-0.04 -0.0551,-0.0854 -0.0551,-0.13643 v -2.80431 c 0,-0.0193 -0.008,-0.0372 -0.0248,-0.0565 -0.0165,-0.0179 -0.0358,-0.0275 -0.0593,-0.0275"
       style="fill:#4a4a4c;fill-opacity:1;fill-rule:nonzero;stroke:none;stroke-width:0.35277778" />
    <path
       id="path3729"
       d="m 107.1848,104.19375 v -3.45474 c 0,-0.0565 0.0207,-0.10335 0.0606,-0.14056 0.0386,-0.0372 0.0841,-0.0551 0.13643,-0.0551 h 0.45337 c 0.0565,0 0.10336,0.0193 0.13918,0.0593 0.0386,0.04 0.0565,0.0854 0.0565,0.13643 v 3.45474 c 0,0.051 -0.0179,0.0965 -0.0565,0.13643 -0.0358,0.04 -0.0827,0.0593 -0.13918,0.0593 h -0.45337 c -0.0524,0 -0.0978,-0.0193 -0.13643,-0.0565 -0.04,-0.0372 -0.0606,-0.0827 -0.0606,-0.13918 m 0.67937,-4.0914 h -0.49747 c -0.051,0 -0.0965,-0.0193 -0.13643,-0.0565 -0.0386,-0.0372 -0.0593,-0.08406 -0.0593,-0.139178 V 99.38853 c 0,-0.05099 0.0193,-0.09646 0.0551,-0.136427 0.0386,-0.03996 0.0841,-0.05925 0.14056,-0.05925 h 0.49747 c 0.0551,0 0.10197,0.0193 0.13918,0.05925 0.0372,0.03997 0.0565,0.08544 0.0565,0.136427 v 0.518142 c 0,0.05512 -0.0207,0.101978 -0.0592,0.139178 -0.0413,0.0372 -0.0868,0.0565 -0.13643,0.0565"
       style="fill:#4a4a4c;fill-opacity:1;fill-rule:nonzero;stroke:none;stroke-width:0.35277778" />
    <path
       id="path3731"
       d="m 111.1439,102.29068 1.06247,-0.28112 c 0.0703,-0.022 0.10611,-0.0785 0.10611,-0.16674 v -0.48232 c 0,-0.0372 -0.0248,-0.0551 -0.0703,-0.0551 h -1.0294 c -0.0455,0 -0.0689,0.0207 -0.0689,0.0634 z m 0,0.77997 v 0.43133 c 0,0.0882 0.0386,0.13229 0.11851,0.13229 h 1.48277 c 0.0524,0 0.0937,0.0165 0.12541,0.0482 0.033,0.033 0.0496,0.0758 0.0496,0.12678 v 0.40514 c 0,0.0427 -0.0179,0.0827 -0.0524,0.11851 -0.0358,0.0386 -0.0758,0.0565 -0.12265,0.0565 h -1.7129 c -0.20119,0 -0.37345,-0.062 -0.51814,-0.18879 -0.1447,-0.1254 -0.21635,-0.30317 -0.21635,-0.53192 v -2.40606 c 0,-0.21911 0.0606,-0.39274 0.18603,-0.52365 0.12265,-0.13092 0.29904,-0.19706 0.52641,-0.19706 h 1.36426 c 0.20119,0 0.37483,0.062 0.52227,0.18328 0.14608,0.12127 0.21912,0.29628 0.21912,0.52503 v 0.63803 c 0,0.0937 -0.001,0.16812 -0.007,0.22462 -0.004,0.0551 -0.0193,0.12816 -0.0455,0.21635 -0.0262,0.0896 -0.0717,0.16261 -0.13505,0.22049 -0.0661,0.0593 -0.15158,0.1006 -0.25907,0.12265 l -1.49655,0.33624 c -0.0193,0.01 -0.0289,0.0303 -0.0289,0.062"
       style="fill:#4a4a4c;fill-opacity:1;fill-rule:nonzero;stroke:none;stroke-width:0.35277778" />
    <path
       id="path3733"
       d="m 119.69739,102.29068 1.06384,-0.28112 c 0.0703,-0.022 0.10473,-0.0785 0.10473,-0.16674 v -0.48232 c 0,-0.0372 -0.0234,-0.0551 -0.0703,-0.0551 h -1.02801 c -0.0469,0 -0.0703,0.0207 -0.0703,0.0634 z m 0,0.77997 v 0.43133 c 0,0.0882 0.04,0.13229 0.11988,0.13229 h 1.48277 c 0.051,0 0.0923,0.0165 0.12541,0.0482 0.0317,0.033 0.0482,0.0758 0.0482,0.12678 v 0.40514 c 0,0.0427 -0.0179,0.0827 -0.051,0.11851 -0.0358,0.0386 -0.0758,0.0565 -0.12265,0.0565 h -1.71428 c -0.20119,0 -0.37344,-0.062 -0.51676,-0.18879 -0.1447,-0.1254 -0.21773,-0.30317 -0.21773,-0.53192 v -2.40606 c 0,-0.21911 0.062,-0.39274 0.18603,-0.52365 0.12265,-0.13092 0.29904,-0.19706 0.52641,-0.19706 h 1.36426 c 0.2012,0 0.37483,0.062 0.52228,0.18328 0.14607,0.12127 0.22049,0.29628 0.22049,0.52503 v 0.63803 c 0,0.0937 -0.003,0.16812 -0.008,0.22462 -0.004,0.0551 -0.0193,0.12816 -0.0455,0.21635 -0.0248,0.0896 -0.0703,0.16261 -0.13504,0.22049 -0.0662,0.0593 -0.15159,0.1006 -0.25907,0.12265 l -1.49655,0.33624 c -0.0193,0.01 -0.0289,0.0303 -0.0289,0.062"
       style="fill:#4a4a4c;fill-opacity:1;fill-rule:nonzero;stroke:none;stroke-width:0.35277778" />
    <path
       id="path3735"
       d="m 124.65005,99.38853 v 4.24574 h 0.41893 c 0.0565,0 0.10335,0.0193 0.14056,0.0593 0.0372,0.04 0.0551,0.0854 0.0551,0.13643 v 0.3638 c 0,0.0565 -0.0193,0.10335 -0.0593,0.13918 -0.0386,0.0386 -0.0854,0.0565 -0.13642,0.0565 h -0.54433 c -0.23013,0 -0.40652,-0.0648 -0.53192,-0.19568 -0.12678,-0.13091 -0.18879,-0.30592 -0.18879,-0.52503 v -4.28019 c 0,-0.05099 0.0179,-0.09646 0.0565,-0.136427 0.0358,-0.03996 0.0827,-0.05925 0.13918,-0.05925 h 0.45338 c 0.0524,0 0.0978,0.0193 0.13642,0.0565 0.04,0.03721 0.0606,0.08268 0.0606,0.139182"
       style="fill:#4a4a4c;fill-opacity:1;fill-rule:nonzero;stroke:none;stroke-width:0.35277778" />
    <path
       id="path3737"
       d="m 128.04968,102.29068 1.06246,-0.28112 c 0.0703,-0.022 0.10473,-0.0785 0.10473,-0.16674 v -0.48232 c 0,-0.0372 -0.0234,-0.0551 -0.0703,-0.0551 h -1.02801 c -0.0469,0 -0.0689,0.0207 -0.0689,0.0634 z m 0,0.77997 v 0.43133 c 0,0.0882 0.0386,0.13229 0.11851,0.13229 h 1.48139 c 0.0524,0 0.0951,0.0165 0.12678,0.0482 0.0317,0.033 0.0482,0.0758 0.0482,0.12678 v 0.40514 c 0,0.0427 -0.0165,0.0827 -0.051,0.11851 -0.0358,0.0386 -0.0758,0.0565 -0.12402,0.0565 h -1.7129 c -0.2012,0 -0.37207,-0.062 -0.51677,-0.18879 -0.14469,-0.1254 -0.21635,-0.30317 -0.21635,-0.53192 v -2.40606 c 0,-0.21911 0.0606,-0.39274 0.18466,-0.52365 0.12402,-0.13092 0.29903,-0.19706 0.52778,-0.19706 h 1.36288 c 0.2012,0 0.37621,0.062 0.52228,0.18328 0.14745,0.12127 0.22049,0.29628 0.22049,0.52503 v 0.63803 c 0,0.0937 -0.003,0.16812 -0.008,0.22462 -0.004,0.0551 -0.0179,0.12816 -0.0455,0.21635 -0.0248,0.0896 -0.0703,0.16261 -0.13504,0.22049 -0.0662,0.0593 -0.15159,0.1006 -0.25907,0.12265 l -1.49656,0.33624 c -0.0193,0.01 -0.0275,0.0303 -0.0275,0.062"
       style="fill:#4a4a4c;fill-opacity:1;fill-rule:nonzero;stroke:none;stroke-width:0.35277778" />
    <path
       id="path3739"
       d="m 134.11304,104.19375 -0.85989,-1.59439 -0.113,0.13229 c -0.008,0.01 -0.0221,0.0248 -0.0413,0.0455 -0.0193,0.0207 -0.0317,0.0345 -0.0386,0.0427 -0.007,0.007 -0.0165,0.0193 -0.0317,0.0386 -0.0138,0.0179 -0.0234,0.0317 -0.0275,0.0413 -0.004,0.01 -0.011,0.022 -0.0179,0.0386 -0.007,0.0165 -0.011,0.0317 -0.0138,0.0455 -0.003,0.0138 -0.003,0.0303 -0.003,0.0482 v 1.16169 c 0,0.0565 -0.0207,0.10198 -0.0606,0.13918 -0.0386,0.0372 -0.0841,0.0565 -0.13643,0.0565 h -0.45475 c -0.0551,0 -0.10198,-0.0193 -0.13918,-0.0593 -0.0372,-0.04 -0.0551,-0.0854 -0.0551,-0.13643 v -4.80522 c 0,-0.05512 0.0179,-0.101974 0.0592,-0.139182 0.0386,-0.03858 0.0841,-0.0565 0.13505,-0.0565 h 0.45475 c 0.0565,0 0.10198,0.0193 0.14056,0.05925 0.0372,0.03997 0.0565,0.08544 0.0565,0.136427 v 2.497005 l 0.88746,-1.16858 c 0.0841,-0.11576 0.17777,-0.17363 0.27974,-0.17363 h 0.41755 c 0.0482,0 0.0937,0.0193 0.1378,0.0593 0.0441,0.0386 0.0648,0.0841 0.0648,0.13505 0,0.0606 -0.0179,0.11851 -0.0551,0.17501 l -0.80616,1.07349 c -0.0565,0.0703 -0.13642,0.11024 -0.23978,0.11989 0.19017,0.0138 0.32798,0.10336 0.41617,0.26734 0.44511,0.85714 0.74001,1.41387 0.8847,1.67019 0.0358,0.0593 0.0565,0.11024 0.0565,0.15158 0,0.0565 -0.022,0.10197 -0.0634,0.13918 -0.0427,0.0372 -0.0882,0.0551 -0.13918,0.0551 h -0.41754 c -0.10612,0 -0.19844,-0.0648 -0.27699,-0.19568"
       style="fill:#4a4a4c;fill-opacity:1;fill-rule:nonzero;stroke:none;stroke-width:0.35277778" />
    <path
       id="path3741"
       d="m 138.43457,101.30538 h -0.678 v 2.24483 c 0,0.0565 0.0276,0.0841 0.0841,0.0841 h 0.67248 c 0.0551,0 0.10197,0.0193 0.13918,0.0593 0.0372,0.04 0.0551,0.0854 0.0551,0.13643 v 0.3638 c 0,0.0565 -0.0193,0.10198 -0.0593,0.13918 -0.04,0.0386 -0.0854,0.0565 -0.13505,0.0565 h -0.77721 c -0.21498,0 -0.40652,-0.0786 -0.57602,-0.23427 -0.17226,-0.15571 -0.25632,-0.35553 -0.25632,-0.59806 v -4.036279 c 0,-0.106108 0.0537,-0.179144 0.16123,-0.216351 l 0.46164,-0.139182 c 0.0785,-0.03306 0.13643,-0.02618 0.17501,0.02067 0.0358,0.04686 0.0551,0.101978 0.0551,0.168123 v 1.189249 h 0.678 c 0.0565,0 0.10335,0.0193 0.14056,0.0593 0.0372,0.0386 0.0565,0.0841 0.0565,0.13642 v 0.37069 c 0,0.0551 -0.0207,0.10197 -0.0593,0.13918 -0.04,0.0372 -0.0854,0.0565 -0.1378,0.0565"
       style="fill:#4a4a4c;fill-opacity:1;fill-rule:nonzero;stroke:none;stroke-width:0.35277778" />
    <path
       id="path3743"
       d="m 142.52734,101.33983 h -0.74276 c -0.10197,0 -0.15296,0.0565 -0.15296,0.16813 v 2.68579 c 0,0.0565 -0.0207,0.10198 -0.0593,0.13918 -0.04,0.0386 -0.0854,0.0565 -0.1378,0.0565 h -0.46853 c -0.0551,0 -0.10198,-0.0193 -0.13918,-0.0593 -0.0372,-0.04 -0.0565,-0.0854 -0.0565,-0.13643 v -2.91731 c 0,-0.19568 0.0675,-0.36656 0.19982,-0.51401 0.13367,-0.14607 0.31144,-0.2191 0.53468,-0.2191 h 1.0225 c 0.0551,0 0.10198,0.0193 0.13919,0.0593 0.0372,0.04 0.0565,0.0841 0.0565,0.13643 v 0.40514 c 0,0.0565 -0.0207,0.10198 -0.0593,0.14056 -0.0413,0.0372 -0.0854,0.0551 -0.13643,0.0551"
       style="fill:#4a4a4c;fill-opacity:1;fill-rule:nonzero;stroke:none;stroke-width:0.35277778" />
    <path
       id="path3745"
       d="m 147.76389,100.79413 -1.5186,4.71427 c -0.0496,0.16812 -0.14056,0.25218 -0.27147,0.25218 h -0.39825 c -0.18604,0 -0.25632,-0.0868 -0.20947,-0.25907 l 0.34727,-1.10657 c -0.16399,-0.0593 -0.2701,-0.15572 -0.31971,-0.29214 l -1.08313,-3.30867 c -0.0551,-0.16812 0.008,-0.2508 0.1943,-0.2508 h 0.38309 c 0.14194,0 0.24529,0.0854 0.30731,0.25631 0.0882,0.2949 0.22462,0.76344 0.41341,1.40422 0.18741,0.64079 0.32384,1.09968 0.40927,1.37391 l 0.82959,-2.79053 c 0.0606,-0.16261 0.16812,-0.24391 0.32108,-0.24391 h 0.38447 c 0.19155,0 0.26183,0.0827 0.21084,0.2508"
       style="fill:#4a4a4c;fill-opacity:1;fill-rule:nonzero;stroke:none;stroke-width:0.35277778" />
    <path
       id="path3747"
       d="m 151.99033,104.38943 h -1.44143 c -0.22737,0 -0.42581,-0.0813 -0.59117,-0.24529 -0.16537,-0.16261 -0.24805,-0.36105 -0.24805,-0.59393 v -2.16766 c 0,-0.21911 0.0772,-0.41479 0.23151,-0.58429 0.15434,-0.17087 0.35553,-0.25493 0.60771,-0.25493 h 1.44143 c 0.0551,0 0.10198,0.0193 0.13918,0.0593 0.0386,0.0386 0.0565,0.0841 0.0565,0.13643 v 0.37069 c 0,0.0551 -0.0207,0.10197 -0.0593,0.13918 -0.04,0.0372 -0.0854,0.0565 -0.13643,0.0565 h -1.35737 c -0.051,0 -0.0758,0.0262 -0.0758,0.0772 v 2.18144 c 0,0.0468 0.0234,0.0703 0.0689,0.0703 h 1.36426 c 0.0551,0 0.10198,0.0193 0.13918,0.0593 0.0386,0.04 0.0565,0.0854 0.0565,0.13643 v 0.3638 c 0,0.0565 -0.0207,0.10198 -0.0593,0.13918 -0.04,0.0386 -0.0854,0.0565 -0.13643,0.0565"
       style="fill:#4a4a4c;fill-opacity:1;fill-rule:nonzero;stroke:none;stroke-width:0.35277778" />
    <path
       id="path3749"
       d="m 155.3307,103.63427 h 1.19614 c 0.0565,0 0.10335,0.0193 0.13918,0.0593 0.0386,0.04 0.0565,0.0854 0.0565,0.13643 v 0.3638 c 0,0.0565 -0.0193,0.10198 -0.0593,0.13918 -0.04,0.0372 -0.0854,0.0565 -0.13642,0.0565 h -2.43362 c -0.0538,0 -0.1006,-0.0193 -0.13781,-0.0593 -0.0372,-0.04 -0.0565,-0.0854 -0.0565,-0.13643 v -0.33624 c 0,-0.0786 0.0262,-0.15296 0.0772,-0.22324 l 1.81901,-2.39228 -0.42719,0.0634 h -1.17547 c -0.0496,0 -0.0951,-0.0193 -0.13505,-0.0565 -0.04,-0.0372 -0.0592,-0.0841 -0.0592,-0.13918 v -0.37069 c 0,-0.0524 0.0179,-0.0965 0.0551,-0.13643 0.0372,-0.04 0.0841,-0.0593 0.13918,-0.0593 h 2.43775 c 0.0551,0 0.10197,0.0193 0.13918,0.0579 0.0372,0.04 0.0551,0.0854 0.0551,0.13643 v 0.33348 c 0,0.0882 -0.0248,0.16261 -0.0758,0.22325 l -1.80247,2.38125 z m 0,0"
       style="fill:#4a4a4c;fill-opacity:1;fill-rule:nonzero;stroke:none;stroke-width:0.35277778" />
    <path
       id="path3751"
       d="m 160.683,101.30538 h -0.99908 c -0.051,0 -0.0772,0.0276 -0.0772,0.0841 v 2.80431 c 0,0.0565 -0.0193,0.10198 -0.0592,0.13918 -0.04,0.0386 -0.0854,0.0565 -0.13643,0.0565 h -0.46164 c -0.0551,0 -0.10198,-0.0193 -0.14056,-0.0593 -0.0372,-0.04 -0.0551,-0.0854 -0.0551,-0.13643 v -2.80431 c 0,-0.22462 0.0758,-0.42168 0.23151,-0.59118 0.15296,-0.17087 0.35829,-0.25493 0.6146,-0.25493 h 1.1672 c 0.25769,0 0.46302,0.0841 0.61598,0.25493 0.15434,0.1695 0.23151,0.36656 0.23151,0.59118 v 2.80431 c 0,0.0565 -0.0207,0.10198 -0.0593,0.13918 -0.04,0.0386 -0.0854,0.0565 -0.13781,0.0565 h -0.45337 c -0.0565,0 -0.10336,-0.0193 -0.14056,-0.0593 -0.0372,-0.04 -0.0565,-0.0854 -0.0565,-0.13643 v -2.80431 c 0,-0.0193 -0.007,-0.0372 -0.0234,-0.0565 -0.0165,-0.0179 -0.0372,-0.0275 -0.0606,-0.0275"
       style="fill:#4a4a4c;fill-opacity:1;fill-rule:nonzero;stroke:none;stroke-width:0.35277778" />
    <path
       id="path3753"
       d="m 164.62832,102.29068 1.06385,-0.28112 c 0.0703,-0.022 0.10473,-0.0785 0.10473,-0.16674 v -0.48232 c 0,-0.0372 -0.0234,-0.0551 -0.0703,-0.0551 h -1.02802 c -0.0469,0 -0.0703,0.0207 -0.0703,0.0634 z m 0,0.77997 v 0.43133 c 0,0.0882 0.04,0.13229 0.11989,0.13229 h 1.48277 c 0.051,0 0.0923,0.0165 0.1254,0.0482 0.0317,0.033 0.0482,0.0758 0.0482,0.12678 v 0.40514 c 0,0.0427 -0.0179,0.0827 -0.051,0.11851 -0.0358,0.0386 -0.0758,0.0565 -0.12264,0.0565 h -1.71428 c -0.20119,0 -0.37345,-0.062 -0.51676,-0.18879 -0.1447,-0.1254 -0.21773,-0.30317 -0.21773,-0.53192 v -2.40606 c 0,-0.21911 0.062,-0.39274 0.18603,-0.52365 0.12265,-0.13092 0.29904,-0.19706 0.52779,-0.19706 h 1.36288 c 0.20119,0 0.37483,0.062 0.52228,0.18328 0.14607,0.12127 0.22048,0.29628 0.22048,0.52503 v 0.63803 c 0,0.0937 -0.003,0.16812 -0.008,0.22462 -0.004,0.0551 -0.0193,0.12816 -0.0455,0.21635 -0.0248,0.0896 -0.0703,0.16261 -0.13505,0.22049 -0.0648,0.0593 -0.15158,0.1006 -0.25906,0.12265 l -1.49656,0.33624 c -0.0193,0.01 -0.0289,0.0303 -0.0289,0.062"
       style="fill:#4a4a4c;fill-opacity:1;fill-rule:nonzero;stroke:none;stroke-width:0.35277778" />
  </g>
</svg>
